PathFileType	4	(X/Y/Z)	Patient5_TMGait_0pt45_1_right_11.trc.trc
DataRate	CameraRate	NumFrames	NumMarkers	Units	OrigDataRate	OrigDataStartFrame	OrigNumFrames
64.814814814815	64.814814814815	4	32	mm	64.814814814815	1	       141
Frame#	Time	R.ASIS			L.ASIS			Chest			R.Shoulder			Neck			L.Shoulder			L.Elbow			L.Wrist			R.Elbow			R.Wrist			L.Thigh.Superior			L.Thigh.Lateral			L.Thigh.Inferior			L.Patella			L.Shank.Superior			L.Shank.Lateral			L.Shank.Inferior			L.Heel			L.Midfoot.Lateral			L.Midfoot.Superior			L.Toe			R.Thigh.Superior			R.Thigh.Lateral			R.Thigh.Inferior			R.Patella			R.Shank.Superior			R.Shank.Lateral			R.Shank.Inferior			R.Heel			R.Midfoot.Lateral			R.Midfoot.Superior			R.Toe			
		X1	Y1	Z1	X2	Y2	Z2	X3	Y3	Z3	X4	Y4	Z4	X5	Y5	Z5	X6	Y6	Z6	X7	Y7	Z7	X8	Y8	Z8	X9	Y9	Z9	X10	Y10	Z10	X11	Y11	Z11	X12	Y12	Z12	X13	Y13	Z13	X14	Y14	Z14	X15	Y15	Z15	X16	Y16	Z16	X17	Y17	Z17	X18	Y18	Z18	X19	Y19	Z19	X20	Y20	Z20	X21	Y21	Z21	X22	Y22	Z22	X23	Y23	Z23	X24	Y24	Z24	X25	Y25	Z25	X26	Y26	Z26	X27	Y27	Z27	X28	Y28	Z28	X29	Y29	Z29	X30	Y30	Z30	X31	Y31	Z31	X32	Y32	Z32	

1	18.070000000000	903.929112202077	1007.407365139336	509.687033843155	909.279163473269	963.573971084705	271.326163214610	979.007764937868	1446.994301475116	384.589357216528	851.938904032710	1519.519992568500	527.000970541355	866.025394176152	1573.296639412446	340.756752710226	963.516130697065	1507.643039998765	181.219878508222	974.822095535388	1177.493533422962	64.169288576360	1129.192083552569	940.606428773484	126.730576319202	740.085969719110	1205.429458267031	659.020432034844	960.671637886995	1019.347059461605	624.009352724432	910.702735129251	741.023995115249	276.483874729985	829.137593322929	676.316391557225	241.419087437255	896.512435772054	612.667707229064	302.545604946451	883.870381550360	497.824448189391	312.547501016149	830.330017605402	400.883963511259	339.557246518479	754.865979388832	334.834710617871	266.634757054919	788.741178148837	280.846541808182	354.959860374801	640.945930904454	52.224870140319	368.722906642264	730.048904499990	27.173951129433	309.911055601639	827.190840390887	88.869479373079	354.066786322501	933.769837825956	46.020176676542	361.741696056386	954.585809722042	809.338286636595	562.528069654960	891.681487917669	726.679356688064	627.733160097064	986.343527279904	684.414133070866	565.541826730563	1011.486976192405	592.377549654814	614.477747603448	982.581800002353	483.017629865117	587.816580939286	905.767140709642	416.052430043411	665.571318087351	977.257844741891	343.696090893097	599.917997331354	881.512437594055	108.239416287056	576.191262873505	950.526056400751	82.944864926677	660.217530593354	1052.247464505335	157.260868704420	656.554065429708	1157.343732908301	123.809872367421	671.852861222541	
2	18.085428571429	902.757448281061	1007.490995310722	509.641987982258	907.477800114503	963.460241845549	271.264487186124	976.884606448238	1446.730565512335	384.650523599703	850.066610167946	1519.296671184027	527.529930180937	863.646884426382	1572.915789724471	341.269050337468	960.741435210785	1507.190722444696	181.404477132291	972.070116017662	1176.797801133749	65.127386112586	1125.119357708269	939.365238433359	128.915524613700	738.062406725472	1205.378549112298	659.657864101634	959.991759238169	1020.708324454637	625.761361770356	907.927331164881	740.370667466959	277.007996123032	825.610121158683	676.178477413311	241.895303571190	892.268515616991	612.041936807925	303.019657217271	878.547563076182	497.383091940738	312.753230523344	824.539707119119	400.818626742412	339.786128822039	748.523995825642	335.236898509903	267.048544352495	782.703156270370	281.038960200868	355.214653243342	633.657239761331	52.481423573787	368.883892688508	722.696519907704	27.278664419674	310.116053563102	820.019651793388	89.178342541528	353.884385544761	926.391522726474	45.763225079292	361.880358142570	958.147187647959	811.206700167102	561.452587896059	897.878424224750	727.725859023088	627.984292873305	992.406299866299	687.090658304750	564.661602518199	1019.762749749011	595.465073206078	613.461633386951	990.772509914126	485.039463519828	586.844860878150	915.227101163396	417.675968197162	665.540739212160	985.505749015254	345.622305674329	598.487576899560	889.389969415646	110.164320047891	575.547462180645	959.835500938935	84.811743585264	658.353326436710	1061.286404200403	159.417583339510	653.197753111464	1166.623864060709	126.185117881385	666.762679902527	
3	18.100857142857	901.649907304014	1007.586169380580	509.605922758223	905.752576074665	963.362380240152	271.208477910951	974.822123802794	1446.476321763352	384.733031945687	848.274860065962	1519.055661188695	528.106176216256	861.317169578127	1572.533533208065	341.833338587134	957.973832328460	1506.761057369556	181.609368096991	969.253102671616	1176.125116994785	66.074888328890	1121.026735709466	938.162510412736	131.035249591652	736.107391900445	1205.318641555139	660.363629306952	959.290786828185	1021.965301316900	627.509638906958	905.229113511301	739.735533505667	277.495052476826	822.174380533045	676.057537282133	242.338933636472	888.153563312840	611.445438029934	303.456303003243	873.352326669513	496.938647060344	312.921318716831	818.873553216349	400.753416938407	339.995527511902	742.286522343108	335.651037214178	267.450326269900	776.755951581696	281.224454490220	355.446557780666	626.471680628646	52.763982520322	369.029147095367	715.447084367226	27.385337240315	310.316710683060	812.941276059101	89.458961677674	353.716355517964	919.115169342259	45.528666269253	362.001225474234	961.620805991315	812.969154170723	560.427062151501	903.920011179969	728.696966771347	628.225903869074	998.301464773440	689.653573534894	563.784083570555	1027.805803519155	598.416153278856	612.414586356333	998.705577248646	486.951234886841	585.837702261095	924.417171279457	419.220423443946	665.473343854923	993.463557618193	347.443915346398	597.037617988567	896.924841685244	112.012761667544	574.911971760183	968.798572596245	86.577027983206	656.475251184345	1069.986356108159	161.442122304865	649.825544599634	1175.554099309541	128.399680348089	661.622501392770	
4	18.116285714286	900.685255001844	1007.690319385238	509.594347360941	904.172198010554	963.282362606346	271.176297981006	972.872606711708	1446.231173271182	384.868830950091	846.644307356536	1518.768348600999	528.791549566909	859.072937217631	1572.137346820520	342.514226217741	955.199709799834	1506.363923803393	181.866259174720	966.265598559267	1175.486586427858	67.010866604985	1116.845495111312	937.014463450839	133.015110348458	734.309046661317	1205.232041494223	661.237742064001	958.551563745659	1022.991362117599	629.250485761275	902.666037595649	739.127311948935	277.925802774463	818.891370483339	675.961080715772	242.742074434390	884.251454097011	610.892262675469	303.834198188840	868.355095316359	496.487314440907	313.031728651811	813.398202140949	400.685704772922	340.174690887708	736.199902503793	336.091394949859	267.836821020166	770.936534510082	281.398568913067	355.642293408736	619.424482112197	53.099242496956	369.149226615353	708.333698467662	27.501424210035	310.508565892814	805.982411440919	89.689859878083	353.574082400226	911.972920833217	45.334948706384	362.087812642975	964.945395963324	814.503266476950	559.495117496427	909.675444036840	729.489242117438	628.439570938275	1003.885845506265	691.963280800509	562.902417936452	1035.407240756999	601.066084118509	611.296228466566	1006.154663342239	488.619390524276	584.748266799049	933.099972046538	420.572345993685	665.312139206431	1000.886217540213	349.034186914258	595.528075633575	903.843267986113	113.672194227836	574.253935046814	977.129029395584	88.115964689900	654.545847482481	1078.064924617540	163.190221217668	646.405051954464	1183.842876088255	130.289563780588	656.386520544138	
